<?xml version="1.0" encoding="UTF-8" standalone="no"?>
<!-- Created with Inkscape (http://www.inkscape.org/) -->

<svg
   xmlns:dc="http://purl.org/dc/elements/1.1/"
   xmlns:cc="http://creativecommons.org/ns#"
   xmlns:rdf="http://www.w3.org/1999/02/22-rdf-syntax-ns#"
   xmlns:svg="http://www.w3.org/2000/svg"
   xmlns="http://www.w3.org/2000/svg"
   xmlns:sodipodi="http://sodipodi.sourceforge.net/DTD/sodipodi-0.dtd"
   xmlns:inkscape="http://www.inkscape.org/namespaces/inkscape"
   width="1000"
   height="1000"
   id="svg3282"
   version="1.1"
   inkscape:version="0.48.3.1 r9886"
   sodipodi:docname="handset.svg">
  <defs
     id="defs3284" />
  <sodipodi:namedview
     id="base"
     pagecolor="#ffffff"
     bordercolor="#666666"
     borderopacity="1.0"
     inkscape:pageopacity="0.0"
     inkscape:pageshadow="2"
     inkscape:zoom="0.175"
     inkscape:cx="-155.97899"
     inkscape:cy="-758.84992"
     inkscape:document-units="px"
     inkscape:current-layer="layer1"
     showgrid="false"
     inkscape:window-width="1680"
     inkscape:window-height="983"
     inkscape:window-x="0"
     inkscape:window-y="0"
     inkscape:window-maximized="1" />
  <metadata
     id="metadata3287">
    <rdf:RDF>
      <cc:Work
         rdf:about="">
        <dc:format>image/svg+xml</dc:format>
        <dc:type
           rdf:resource="http://purl.org/dc/dcmitype/StillImage" />
        <dc:title></dc:title>
      </cc:Work>
    </rdf:RDF>
  </metadata>
  <g
     inkscape:label="Layer 1"
     inkscape:groupmode="layer"
     id="layer1"
     transform="translate(0,-52.362183)">
    <path
       inkscape:connector-curvature="0"
       id="path3280"
       style="fill:#100f0d;fill-opacity:1;fill-rule:nonzero;stroke:none"
       d="m 683.76915,814.85469 -367.54,0 0,-577.62572 367.54,0 0,577.62572 z m -183.7684,131.2067 c -33.8134,0 -61.2561,-19.602 -61.2561,-43.6302 0,-24.1863 27.4427,-43.7883 61.2561,-43.7883 33.8134,0 61.2562,19.602 61.2562,43.7883 0,24.0282 -27.4428,43.6302 -61.2562,43.6302 z m 166.269,-822.49222 -332.5379,0 c -48.1307,0 -87.5149,39.362 -87.5149,87.4185 l 0,682.59102 c 0,48.2145 39.3842,87.5765 87.5149,87.5765 l 332.5379,0 c 48.1354,0 87.5133,-39.362 87.5133,-87.5765 l 0,-682.59102 c 0,-48.0565 -39.3779,-87.4185 -87.5133,-87.4185" />
  </g>
</svg>
